<?xml version="1.0" encoding="utf-8"?>
<!-- Generator: Adobe Illustrator 21.1.0, SVG Export Plug-In . SVG Version: 6.00 Build 0)  -->
<svg version="1.1" xmlns="http://www.w3.org/2000/svg" xmlns:xlink="http://www.w3.org/1999/xlink" x="0px" y="0px"
	 viewBox="0 0 41.7 33.9" style="enable-background:new 0 0 41.7 33.9;" xml:space="preserve">
<style type="text/css">
	.st0{display:none;}
	.st1{display:inline;fill:none;stroke:#ED1F51;stroke-miterlimit:10;}
	.st2{display:inline;fill:#FFFFFF;stroke:#ED1F51;stroke-miterlimit:10;}
	.st3{fill:none;stroke:#ED1F51;stroke-miterlimit:10;}
	.st4{fill:#FFFFFF;stroke:#ED1F51;stroke-miterlimit:10;}
</style>
<g id="Layer_1" class="st0">
	<path class="st1" d="M1.7,27.7h28.7c0,0,4.3-8.5,5.7-13.5c0.7-2.5,1.7-8.3-3.1-8.9c-3.7-0.4-5.8,1.3-7.3,3.1
		c-0.8,1-2.2,3.2-2.2,3.2L13.1,11l-0.1-9.6L0.6,1L1.7,27.7z"/>
	<path class="st2" d="M5.2,30.1h28c0,0,0,0,2.5-4L21.9,7.8L4.7,17.6L5.2,30.1z"/>
	<path class="st2" d="M42.4,32.4H13.4c0-6.2,6.5-14.5,14.5-14.5S42.4,24.2,42.4,32.4z"/>
</g>
<g id="Layer_2">
	<path class="st3" d="M2.5,29.8h31c0,0,4.6-9.1,6.1-14.6c0.8-2.7,1.9-8.9-3.4-9.6c-4-0.5-6.3,1.4-7.9,3.3c-0.9,1-2.3,3.4-2.3,3.4
		l-11.2-0.7L14.7,1.3L1.3,1L2.5,29.8z"/>
	<path class="st4" d="M4.8,31.3h32.3c0,0,0,0,2.9-4.6L24,5.6L4.1,16.9L4.8,31.3z"/>
	<path class="st4" d="M35.9,33H11.7c0-5.2,5.4-12.1,12.1-12.1S35.9,26.1,35.9,33z"/>
</g>
</svg>
